<svg id="svg" version="1.1" xmlns="http://www.w3.org/2000/svg" xmlns:xlink="http://www.w3.org/1999/xlink" width="400" height="49.666666666666664" viewBox="0, 0, 400,49.666666666666664"><g id="svgg"><path id="path0" d="M0.000 24.500 L 0.000 49.000 11.748 49.000 L 23.496 49.000 24.373 48.127 C 24.855 47.647,25.231 47.197,25.208 47.127 C 25.185 47.057,25.245 47.000,25.341 47.000 C 25.527 47.000,31.000 41.624,31.000 41.442 C 31.000 41.382,25.825 41.333,19.500 41.333 L 8.000 41.333 8.000 24.417 L 8.000 7.500 25.083 7.500 L 42.167 7.500 42.167 18.833 C 42.167 27.746,42.211 30.167,42.374 30.167 C 42.487 30.167,44.137 28.611,46.040 26.710 L 49.500 23.253 49.500 11.626 L 49.500 0.000 24.750 0.000 L 0.000 0.000 0.000 24.500 M242.000 23.212 C 239.623 24.044,237.779 25.625,237.289 27.250 C 237.234 27.433,237.074 27.883,236.935 28.250 C 236.306 29.904,236.709 33.072,237.742 34.583 C 238.910 36.293,240.654 37.474,244.250 38.988 C 247.382 40.307,247.979 40.779,247.737 41.743 C 247.206 43.859,242.661 43.628,241.207 41.411 C 240.909 40.956,240.609 40.570,240.541 40.553 C 240.393 40.516,239.333 41.935,239.333 42.170 C 239.333 42.260,239.275 42.333,239.203 42.333 C 239.131 42.333,238.939 42.557,238.778 42.831 C 238.616 43.105,238.234 43.657,237.929 44.056 C 236.692 45.676,236.714 45.545,237.529 46.430 C 241.809 51.080,250.640 49.921,252.915 44.411 C 254.203 41.291,253.258 36.998,251.009 35.751 C 249.941 35.159,247.812 34.164,246.750 33.760 C 242.822 32.268,241.367 30.314,243.232 29.035 C 244.148 28.408,246.980 28.755,247.306 29.534 C 247.513 30.031,248.174 29.402,249.250 27.683 C 249.342 27.537,249.454 27.379,249.500 27.333 C 249.743 27.090,250.640 25.866,250.813 25.541 C 251.028 25.136,250.876 24.932,249.691 24.038 C 248.192 22.908,244.117 22.470,242.000 23.212 M273.155 23.216 C 272.554 23.418,271.862 23.715,271.620 23.875 C 271.377 24.035,271.120 24.167,271.048 24.168 C 270.179 24.174,268.292 27.188,267.972 29.083 C 267.203 33.622,269.287 36.392,275.417 38.982 C 278.621 40.335,279.152 40.753,278.907 41.730 C 278.293 44.175,272.000 43.196,272.000 40.656 C 272.000 40.250,271.528 40.592,271.002 41.379 C 270.682 41.858,269.928 42.925,269.326 43.750 C 268.724 44.575,268.177 45.341,268.110 45.452 C 267.906 45.790,270.421 48.167,270.982 48.167 C 271.055 48.167,271.352 48.285,271.642 48.429 C 273.936 49.574,278.210 49.557,280.333 48.394 C 281.418 47.801,282.667 46.839,282.667 46.597 C 282.667 46.567,282.930 46.254,283.252 45.903 C 283.573 45.552,283.906 45.036,283.991 44.757 C 284.077 44.478,284.270 43.913,284.421 43.500 C 285.022 41.863,284.559 38.207,283.604 37.047 C 283.206 36.563,282.410 35.835,282.280 35.834 C 282.204 35.834,282.045 35.736,281.926 35.616 C 281.714 35.405,278.999 34.157,277.500 33.582 C 276.006 33.009,275.043 32.476,274.553 31.952 C 272.411 29.660,274.881 27.657,277.961 29.189 C 278.539 29.476,279.036 29.682,279.065 29.647 C 279.095 29.612,279.627 28.871,280.248 28.000 C 280.869 27.129,281.506 26.267,281.664 26.083 C 282.184 25.478,282.189 25.187,281.687 24.662 C 281.427 24.389,281.137 24.167,281.044 24.167 C 280.951 24.167,280.786 24.060,280.678 23.931 C 279.844 22.925,275.308 22.494,273.155 23.216 M349.585 23.457 C 349.220 23.494,348.845 23.583,348.752 23.653 C 348.659 23.724,348.208 23.881,347.750 24.003 C 346.911 24.226,346.636 24.362,345.418 25.152 C 343.562 26.355,342.353 27.952,341.093 30.866 C 340.765 31.624,340.512 33.492,340.505 35.208 L 340.500 36.500 343.917 36.500 L 347.333 36.500 347.333 35.754 C 347.333 32.379,351.635 29.434,354.693 30.715 C 355.431 31.024,355.405 31.048,357.087 28.583 C 357.712 27.667,358.474 26.587,358.779 26.184 C 359.084 25.782,359.333 25.395,359.333 25.325 C 359.333 25.159,357.572 24.167,357.278 24.167 C 357.153 24.167,356.810 24.046,356.515 23.899 C 355.564 23.425,352.083 23.203,349.585 23.457 M67.000 26.705 C 67.000 29.781,67.096 30.381,67.814 31.795 C 67.895 31.953,68.125 32.533,68.326 33.083 C 68.694 34.089,69.003 34.875,69.637 36.417 C 69.826 36.875,70.180 37.775,70.424 38.417 C 70.668 39.058,70.961 39.808,71.076 40.083 C 71.190 40.358,71.450 41.033,71.654 41.583 C 71.858 42.133,72.161 42.921,72.326 43.333 C 72.827 44.581,73.285 45.723,73.489 46.234 C 73.724 46.821,73.840 46.707,74.322 45.417 C 74.673 44.476,74.869 43.979,75.654 42.042 C 75.831 41.606,76.140 40.800,76.341 40.250 C 76.543 39.700,76.838 38.950,76.997 38.583 C 77.157 38.217,77.453 37.467,77.657 36.917 C 77.860 36.367,78.133 35.671,78.262 35.371 C 78.426 34.992,78.448 34.738,78.334 34.538 C 78.243 34.380,78.063 33.950,77.932 33.583 C 77.695 32.914,77.567 32.575,76.742 30.417 C 76.497 29.775,76.160 28.875,75.993 28.417 C 75.827 27.958,75.527 27.171,75.328 26.667 C 75.129 26.162,74.805 25.300,74.608 24.750 L 74.250 23.750 70.625 23.705 L 67.000 23.660 67.000 26.705 M84.065 23.958 C 84.015 24.119,83.835 24.587,83.666 25.000 C 83.497 25.412,83.191 26.200,82.987 26.750 C 82.783 27.300,82.478 28.068,82.308 28.457 C 82.139 28.845,82.000 29.237,82.000 29.327 C 82.000 29.417,81.855 29.812,81.677 30.204 C 81.500 30.596,81.189 31.367,80.986 31.917 C 80.783 32.467,80.478 33.235,80.308 33.623 C 80.139 34.012,80.000 34.404,80.000 34.494 C 80.000 34.584,79.855 34.979,79.677 35.371 C 79.500 35.763,79.189 36.533,78.986 37.083 C 78.783 37.633,78.478 38.401,78.308 38.790 C 78.139 39.178,78.000 39.570,78.000 39.660 C 78.000 39.751,77.853 40.145,77.674 40.537 C 77.495 40.929,77.039 42.075,76.661 43.083 C 76.283 44.092,75.835 45.254,75.667 45.667 C 75.204 46.798,74.500 48.659,74.500 48.752 C 74.500 48.797,76.637 48.833,79.250 48.833 C 83.059 48.833,84.000 48.790,84.000 48.615 C 84.000 48.494,84.150 48.085,84.333 47.706 C 84.517 47.327,84.667 46.939,84.667 46.846 C 84.667 46.752,84.809 46.355,84.982 45.963 C 85.156 45.571,85.456 44.856,85.649 44.375 C 85.842 43.894,86.144 43.144,86.321 42.708 C 86.497 42.273,86.809 41.467,87.013 40.917 C 87.217 40.367,87.522 39.599,87.692 39.210 C 87.861 38.822,88.000 38.430,88.000 38.340 C 88.000 38.249,88.142 37.855,88.316 37.463 C 88.489 37.071,88.789 36.356,88.982 35.875 C 89.175 35.394,89.479 34.644,89.657 34.208 C 89.836 33.773,90.294 32.592,90.675 31.583 C 91.057 30.575,91.468 29.525,91.589 29.250 C 91.709 28.975,91.918 28.450,92.053 28.083 C 92.188 27.717,92.456 27.023,92.649 26.542 C 93.279 24.971,93.667 23.924,93.667 23.794 C 93.667 23.487,84.162 23.650,84.065 23.958 M108.500 32.837 L 108.500 42.008 109.742 43.796 C 110.426 44.779,111.487 46.315,112.101 47.208 L 113.218 48.833 120.942 48.833 L 128.667 48.833 128.667 45.917 L 128.667 43.000 122.583 43.000 L 116.500 43.000 116.500 40.833 L 116.500 38.667 120.333 38.667 L 124.167 38.667 124.167 35.750 L 124.167 32.833 120.333 32.833 L 116.500 32.833 116.500 31.167 L 116.500 29.500 119.250 29.500 L 122.000 29.500 122.000 28.667 L 122.000 27.833 125.333 27.833 L 128.667 27.833 128.667 25.750 L 128.667 23.667 118.583 23.667 L 108.500 23.667 108.500 32.837 M143.334 26.792 L 143.335 29.917 143.959 30.751 C 144.302 31.211,144.808 31.923,145.083 32.335 C 145.358 32.746,145.658 33.170,145.750 33.276 C 145.929 33.483,148.253 36.780,148.667 37.414 C 148.804 37.625,149.160 38.147,149.458 38.574 C 149.756 39.001,150.000 39.384,150.000 39.425 C 150.000 39.466,148.500 39.500,146.667 39.500 L 143.333 39.500 143.333 44.167 L 143.333 48.833 146.833 48.833 L 150.333 48.833 150.333 44.304 L 150.333 39.775 150.913 40.596 C 151.777 41.817,151.803 41.854,152.382 42.683 C 152.676 43.104,153.254 43.921,153.667 44.497 C 154.457 45.601,154.708 45.961,155.250 46.767 C 155.433 47.040,155.840 47.616,156.153 48.048 L 156.723 48.833 160.862 48.833 C 163.138 48.833,165.000 48.793,165.000 48.744 C 165.000 48.649,164.510 47.859,164.280 47.583 C 164.204 47.492,163.903 47.072,163.612 46.651 C 163.321 46.229,162.751 45.404,162.345 44.817 C 161.939 44.230,161.545 43.725,161.470 43.694 C 161.395 43.664,161.333 43.536,161.333 43.411 C 161.333 43.286,161.232 43.123,161.108 43.050 C 160.984 42.977,160.785 42.729,160.667 42.500 C 160.549 42.271,160.228 41.797,159.954 41.448 L 159.456 40.813 159.853 40.541 C 163.211 38.249,164.574 33.169,162.881 29.250 C 162.136 27.525,159.741 24.833,158.952 24.833 C 158.836 24.833,158.567 24.711,158.354 24.563 C 157.277 23.808,155.926 23.673,149.458 23.670 L 143.333 23.667 143.334 26.792 M179.338 26.375 L 179.343 29.083 181.092 31.583 C 182.054 32.958,182.933 34.202,183.045 34.347 C 183.158 34.491,183.325 34.727,183.417 34.871 C 183.508 35.015,183.814 35.459,184.097 35.858 C 184.379 36.257,184.847 36.921,185.136 37.333 C 185.426 37.746,186.095 38.695,186.623 39.443 C 187.532 40.730,189.108 42.983,190.917 45.583 C 191.364 46.225,191.790 46.775,191.865 46.806 C 191.939 46.836,192.000 46.926,192.000 47.005 C 192.000 47.085,192.281 47.529,192.625 47.991 L 193.250 48.833 196.458 48.833 L 199.667 48.833 199.666 46.125 C 199.665 43.136,199.765 43.485,198.333 41.496 C 197.921 40.923,197.471 40.286,197.333 40.079 C 197.095 39.719,196.552 38.944,195.430 37.357 C 195.148 36.958,194.804 36.462,194.667 36.255 C 194.529 36.048,194.079 35.407,193.667 34.830 C 193.254 34.254,192.676 33.438,192.382 33.016 C 192.087 32.595,191.765 32.137,191.667 32.000 C 191.402 31.632,190.518 30.365,189.679 29.151 C 189.274 28.564,188.899 28.046,188.846 28.000 C 188.793 27.954,188.675 27.797,188.583 27.650 C 188.265 27.141,187.521 26.078,186.843 25.167 C 186.468 24.662,186.116 24.119,186.061 23.958 C 185.970 23.694,185.654 23.667,182.647 23.667 L 179.333 23.667 179.338 26.375 M192.000 26.583 L 192.000 29.500 195.833 29.500 L 199.667 29.500 199.667 26.583 L 199.667 23.667 195.833 23.667 L 192.000 23.667 192.000 26.583 M214.833 36.250 L 214.833 48.833 218.417 48.833 L 222.000 48.833 221.994 45.958 L 221.989 43.083 218.661 39.683 C 215.116 36.061,215.135 36.085,215.708 35.904 C 215.915 35.839,216.833 35.431,217.750 34.998 C 218.667 34.564,219.998 33.936,220.708 33.602 L 222.000 32.995 222.000 28.331 L 222.000 23.667 218.417 23.667 L 214.833 23.667 214.833 36.250 M307.779 23.958 C 307.618 24.459,307.039 26.043,306.667 27.000 C 306.470 27.504,306.173 28.292,306.006 28.750 C 305.838 29.208,305.502 30.108,305.258 30.750 C 305.015 31.392,304.736 32.179,304.640 32.500 C 304.544 32.821,304.406 33.158,304.333 33.250 C 304.261 33.342,304.123 33.679,304.026 34.000 C 303.930 34.321,303.666 35.071,303.440 35.667 C 302.372 38.480,302.136 39.124,301.974 39.667 C 301.877 39.987,301.739 40.325,301.667 40.417 C 301.594 40.508,301.456 40.846,301.360 41.167 C 301.197 41.709,300.961 42.353,299.893 45.167 C 299.667 45.762,299.408 46.490,299.319 46.783 C 299.229 47.076,299.046 47.526,298.912 47.783 C 298.348 48.865,298.230 48.833,302.813 48.833 L 306.960 48.833 307.166 48.292 C 307.411 47.648,307.880 46.371,308.360 45.044 C 308.551 44.516,308.839 43.746,309.000 43.333 C 309.161 42.921,309.449 42.151,309.640 41.622 C 309.967 40.718,310.211 40.056,310.993 37.958 C 311.172 37.477,311.513 36.558,311.750 35.917 C 312.475 33.958,312.444 34.009,312.586 34.583 C 312.654 34.858,312.841 35.421,313.002 35.833 C 313.162 36.246,313.470 37.052,313.686 37.625 L 314.078 38.667 316.362 38.667 C 317.769 38.667,318.688 38.733,318.754 38.841 C 318.913 39.097,319.844 41.683,319.952 42.167 C 320.003 42.396,320.119 42.677,320.209 42.792 C 320.340 42.956,319.893 43.000,318.086 43.000 L 315.797 43.000 315.905 43.458 C 316.015 43.931,316.467 45.187,316.999 46.500 C 317.166 46.913,317.428 47.606,317.582 48.042 L 317.861 48.833 322.017 48.833 L 326.173 48.833 326.060 48.375 C 325.998 48.123,325.809 47.592,325.640 47.195 C 325.472 46.797,325.333 46.400,325.333 46.311 C 325.333 46.223,325.183 45.840,325.000 45.461 C 324.817 45.081,324.667 44.669,324.667 44.544 C 324.667 44.419,324.552 44.096,324.412 43.825 L 324.158 43.333 325.968 43.333 C 328.054 43.333,328.073 43.324,327.725 42.520 C 327.581 42.188,327.402 41.692,327.327 41.417 C 327.253 41.142,327.008 40.392,326.784 39.750 L 326.376 38.583 324.411 38.500 L 322.447 38.417 322.039 37.333 C 321.815 36.737,321.494 35.875,321.327 35.417 C 321.160 34.958,320.863 34.171,320.667 33.667 C 320.308 32.746,319.929 31.726,319.428 30.333 C 319.279 29.921,319.089 29.433,319.004 29.250 C 318.848 28.909,318.238 27.309,317.641 25.667 C 317.457 25.162,317.202 24.506,317.073 24.208 L 316.839 23.667 312.355 23.667 C 308.232 23.667,307.865 23.690,307.779 23.958 M379.833 32.801 L 379.833 41.935 381.156 43.842 C 381.883 44.892,382.952 46.443,383.531 47.291 L 384.583 48.831 392.292 48.832 L 400.000 48.833 400.000 45.917 L 400.000 43.000 393.917 43.000 L 387.833 43.000 387.833 40.833 L 387.833 38.667 391.667 38.667 L 395.500 38.667 395.500 35.750 L 395.500 32.833 391.667 32.833 L 387.833 32.833 387.833 31.167 L 387.833 29.500 390.583 29.500 L 393.333 29.500 393.333 28.667 L 393.333 27.833 396.667 27.833 L 400.000 27.833 400.000 25.750 L 400.000 23.667 389.917 23.667 L 379.833 23.667 379.833 32.801 M155.518 29.090 C 156.753 29.526,157.833 30.926,157.833 32.091 C 157.833 33.189,156.710 35.077,156.000 35.172 C 155.554 35.233,155.333 35.170,155.333 34.985 C 155.333 34.885,155.177 34.603,154.985 34.360 C 154.794 34.116,154.159 33.242,153.574 32.417 C 152.990 31.592,152.453 30.840,152.381 30.746 C 151.947 30.180,151.167 29.014,151.167 28.931 C 151.167 28.707,154.810 28.840,155.518 29.090 M179.333 41.833 L 179.333 48.833 183.000 48.833 L 186.667 48.833 186.667 46.900 L 186.667 44.967 185.708 43.612 C 185.181 42.867,184.675 42.130,184.583 41.976 C 184.492 41.821,183.892 40.957,183.250 40.056 C 182.608 39.154,182.008 38.296,181.917 38.149 C 181.611 37.657,180.419 35.918,180.330 35.833 C 180.282 35.787,180.111 35.544,179.951 35.292 C 179.365 34.371,179.333 34.701,179.333 41.833 M355.833 37.575 L 355.833 38.983 356.636 39.033 L 357.440 39.083 357.304 39.605 C 357.103 40.374,355.977 41.401,354.748 41.937 L 353.667 42.408 353.667 45.870 L 353.667 49.333 354.781 49.333 C 356.112 49.333,357.554 48.977,358.917 48.311 C 362.817 46.404,364.675 43.195,365.103 37.625 L 365.214 36.167 360.524 36.167 L 355.833 36.167 355.833 37.575 " stroke="none" fill="#3c3c3c" fill-rule="evenodd"></path><path id="path1" d="M43.833 33.739 C 42.135 34.119,40.311 35.376,39.051 37.037 C 37.846 38.625,37.526 42.310,38.424 44.250 C 40.554 48.851,46.022 50.415,50.238 47.629 C 50.628 47.371,52.000 46.043,52.000 45.923 C 52.000 45.876,52.125 45.691,52.278 45.512 C 53.456 44.137,53.848 40.252,53.004 38.333 C 51.440 34.781,47.656 32.885,43.833 33.739 " stroke="none" fill="#fc0464" fill-rule="evenodd"></path><path id="path2" d="" stroke="none" fill="#444444" fill-rule="evenodd"></path><path id="path3" d="" stroke="none" fill="#3c4050" fill-rule="evenodd"></path><path id="path4" d="" stroke="none" fill="#3c4450" fill-rule="evenodd"></path></g></svg>